<?xml version="1.0" standalone="no"?><svg xmlns:xlink="http://www.w3.org/1999/xlink" xmlns="http://www.w3.org/2000/svg" viewBox="0 0 1000 625" preserveAspectRatio="xMaxYMax slice"><g transform="scale(0.7603406326034063)"><rect x="0" y="0" width="1315.2" height="822" fill="#ffffff"/><circle cx="41.1" cy="41.1" r="20.55" fill="#fdefef"/><circle cx="123.3" cy="41.1" r="20.55" fill="#fce6e6"/><circle cx="205.5" cy="41.1" r="20.55" fill="#ee8989"/><circle cx="287.7" cy="41.1" r="20.55" fill="#fef8f8"/><circle cx="369.90000000000003" cy="41.1" r="20.55" fill="#f9d5d5"/><circle cx="452.1" cy="41.1" r="20.55" fill="#f19c9c"/><circle cx="534.3" cy="41.1" r="20.55" fill="#f5b7b7"/><circle cx="616.5" cy="41.1" r="20.55" fill="#f4adad"/><circle cx="698.6999999999999" cy="41.1" r="20.55" fill="#f6bbbb"/><circle cx="780.9" cy="41.1" r="20.55" fill="#f2a5a5"/><circle cx="863.0999999999999" cy="41.1" r="20.55" fill="#f8cdcd"/><circle cx="945.3" cy="41.1" r="20.55" fill="#fef5f5"/><circle cx="1027.5" cy="41.1" r="20.55" fill="#ee8686"/><circle cx="1109.7" cy="41.1" r="20.55" fill="#fad8d8"/><circle cx="1191.8999999999999" cy="41.1" r="20.55" fill="#f7c5c5"/><circle cx="1274.1" cy="41.1" r="20.55" fill="#f7c9c9"/><circle cx="41.1" cy="123.3" r="20.55" fill="#fcebeb"/><circle cx="123.3" cy="123.3" r="20.55" fill="#fffefe"/><circle cx="205.5" cy="123.3" r="20.55" fill="#fce9e9"/><circle cx="287.7" cy="123.3" r="20.55" fill="#fadada"/><circle cx="369.90000000000003" cy="123.3" r="20.55" fill="#fdeeee"/><circle cx="452.1" cy="123.3" r="20.55" fill="#fbe0e0"/><circle cx="534.3" cy="123.3" r="20.55" fill="#ed8080"/><circle cx="616.5" cy="123.3" r="20.55" fill="#ee8888"/><circle cx="698.6999999999999" cy="123.3" r="20.55" fill="#f9d7d7"/><circle cx="780.9" cy="123.3" r="20.55" fill="#fbe1e1"/><circle cx="863.0999999999999" cy="123.3" r="20.55" fill="#f8d0d0"/><circle cx="945.3" cy="123.3" r="20.55" fill="#fadcdc"/><circle cx="1027.5" cy="123.3" r="20.55" fill="#f3acac"/><circle cx="1109.7" cy="123.3" r="20.55" fill="#f19c9c"/><circle cx="1191.8999999999999" cy="123.3" r="20.55" fill="#fbe0e0"/><circle cx="1274.1" cy="123.3" r="20.55" fill="#ee8888"/><circle cx="41.1" cy="205.5" r="20.55" fill="#ef8d8d"/><circle cx="123.3" cy="205.5" r="20.55" fill="#f9d4d4"/><circle cx="205.5" cy="205.5" r="20.55" fill="#f4aeae"/><circle cx="287.7" cy="205.5" r="20.55" fill="#f8d0d0"/><circle cx="369.90000000000003" cy="205.5" r="20.55" fill="#f3a8a8"/><circle cx="452.1" cy="205.5" r="20.55" fill="#fce9e9"/><circle cx="534.3" cy="205.5" r="20.55" fill="#f7c8c8"/><circle cx="616.5" cy="205.5" r="20.55" fill="#fcecec"/><circle cx="698.6999999999999" cy="205.5" r="20.55" fill="#fef6f6"/><circle cx="780.9" cy="205.5" r="20.55" fill="#f7c7c7"/><circle cx="863.0999999999999" cy="205.5" r="20.55" fill="#f5b6b6"/><circle cx="945.3" cy="205.5" r="20.55" fill="#f6c0c0"/><circle cx="1027.5" cy="205.5" r="20.55" fill="#f8caca"/><circle cx="1109.7" cy="205.5" r="20.55" fill="#fefafa"/><circle cx="1191.8999999999999" cy="205.5" r="20.55" fill="#f2a2a2"/><circle cx="1274.1" cy="205.5" r="20.55" fill="#f3a6a6"/><circle cx="41.1" cy="287.7" r="20.55" fill="#fdeeee"/><circle cx="123.3" cy="287.7" r="20.55" fill="#fdeded"/><circle cx="205.5" cy="287.7" r="20.55" fill="#f19898"/><circle cx="287.7" cy="287.7" r="20.55" fill="#fef9f9"/><circle cx="369.90000000000003" cy="287.7" r="20.55" fill="#f3a6a6"/><circle cx="452.1" cy="287.7" r="20.55" fill="#f09393"/><circle cx="534.3" cy="287.7" r="20.55" fill="#f29f9f"/><circle cx="616.5" cy="287.7" r="20.55" fill="#f3a8a8"/><circle cx="698.6999999999999" cy="287.7" r="20.55" fill="#f5bbbb"/><circle cx="780.9" cy="287.7" r="20.55" fill="#fdf0f0"/><circle cx="863.0999999999999" cy="287.7" r="20.55" fill="#f3acac"/><circle cx="945.3" cy="287.7" r="20.55" fill="#f3acac"/><circle cx="1027.5" cy="287.7" r="20.55" fill="#f6c0c0"/><circle cx="1109.7" cy="287.7" r="20.55" fill="#fce8e8"/><circle cx="1191.8999999999999" cy="287.7" r="20.55" fill="#ffffff"/><circle cx="1274.1" cy="287.7" r="20.55" fill="#ef8a8a"/><circle cx="41.1" cy="369.90000000000003" r="20.55" fill="#fef9f9"/><circle cx="123.3" cy="369.90000000000003" r="20.55" fill="#ef8c8c"/><circle cx="205.5" cy="369.90000000000003" r="20.55" fill="#fbe2e2"/><circle cx="287.7" cy="369.90000000000003" r="20.55" fill="#f4b0b0"/><circle cx="369.90000000000003" cy="369.90000000000003" r="20.55" fill="#f4b2b2"/><circle cx="452.1" cy="369.90000000000003" r="20.55" fill="#ee8585"/><circle cx="534.3" cy="369.90000000000003" r="20.55" fill="#fadddd"/><circle cx="616.5" cy="369.90000000000003" r="20.55" fill="#fdf2f2"/><circle cx="698.6999999999999" cy="369.90000000000003" r="20.55" fill="#fce7e7"/><circle cx="780.9" cy="369.90000000000003" r="20.55" fill="#f5b9b9"/><circle cx="863.0999999999999" cy="369.90000000000003" r="20.55" fill="#f6c1c1"/><circle cx="945.3" cy="369.90000000000003" r="20.55" fill="#fad9d9"/><circle cx="1027.5" cy="369.90000000000003" r="20.55" fill="#fceaea"/><circle cx="1109.7" cy="369.90000000000003" r="20.55" fill="#f7c6c6"/><circle cx="1191.8999999999999" cy="369.90000000000003" r="20.55" fill="#f9d7d7"/><circle cx="1274.1" cy="369.90000000000003" r="20.55" fill="#f8cbcb"/><circle cx="41.1" cy="452.1" r="20.55" fill="#fad8d8"/><circle cx="123.3" cy="452.1" r="20.55" fill="#fceaea"/><circle cx="205.5" cy="452.1" r="20.55" fill="#ef8d8d"/><circle cx="287.7" cy="452.1" r="20.55" fill="#f9d7d7"/><circle cx="369.90000000000003" cy="452.1" r="20.55" fill="#fef7f7"/><circle cx="452.1" cy="452.1" r="20.55" fill="#f09797"/><circle cx="534.3" cy="452.1" r="20.55" fill="#fbe0e0"/><circle cx="616.5" cy="452.1" r="20.55" fill="#ee8585"/><circle cx="698.6999999999999" cy="452.1" r="20.55" fill="#fbe5e5"/><circle cx="780.9" cy="452.1" r="20.55" fill="#fce8e8"/><circle cx="863.0999999999999" cy="452.1" r="20.55" fill="#f5bbbb"/><circle cx="945.3" cy="452.1" r="20.55" fill="#fadcdc"/><circle cx="1027.5" cy="452.1" r="20.55" fill="#fef5f5"/><circle cx="1109.7" cy="452.1" r="20.55" fill="#f2a5a5"/><circle cx="1191.8999999999999" cy="452.1" r="20.55" fill="#f5b5b5"/><circle cx="1274.1" cy="452.1" r="20.55" fill="#ee8282"/><circle cx="41.1" cy="534.3" r="20.55" fill="#f2a2a2"/><circle cx="123.3" cy="534.3" r="20.55" fill="#fadddd"/><circle cx="205.5" cy="534.3" r="20.55" fill="#fad8d8"/><circle cx="287.7" cy="534.3" r="20.55" fill="#f29f9f"/><circle cx="369.90000000000003" cy="534.3" r="20.55" fill="#f9d6d6"/><circle cx="452.1" cy="534.3" r="20.55" fill="#ed7f7f"/><circle cx="534.3" cy="534.3" r="20.55" fill="#fce8e8"/><circle cx="616.5" cy="534.3" r="20.55" fill="#fdf2f2"/><circle cx="698.6999999999999" cy="534.3" r="20.55" fill="#f19a9a"/><circle cx="780.9" cy="534.3" r="20.55" fill="#fbe3e3"/><circle cx="863.0999999999999" cy="534.3" r="20.55" fill="#f9d2d2"/><circle cx="945.3" cy="534.3" r="20.55" fill="#f19a9a"/><circle cx="1027.5" cy="534.3" r="20.55" fill="#ef8e8e"/><circle cx="1109.7" cy="534.3" r="20.55" fill="#fef9f9"/><circle cx="1191.8999999999999" cy="534.3" r="20.55" fill="#f4adad"/><circle cx="1274.1" cy="534.3" r="20.55" fill="#f3a7a7"/><circle cx="41.1" cy="616.5" r="20.55" fill="#ed8181"/><circle cx="123.3" cy="616.5" r="20.55" fill="#f4adad"/><circle cx="205.5" cy="616.5" r="20.55" fill="#fadada"/><circle cx="287.7" cy="616.5" r="20.55" fill="#fadddd"/><circle cx="369.90000000000003" cy="616.5" r="20.55" fill="#ed8181"/><circle cx="452.1" cy="616.5" r="20.55" fill="#f19a9a"/><circle cx="534.3" cy="616.5" r="20.55" fill="#f2a0a0"/><circle cx="616.5" cy="616.5" r="20.55" fill="#f9d3d3"/><circle cx="698.6999999999999" cy="616.5" r="20.55" fill="#f6c0c0"/><circle cx="780.9" cy="616.5" r="20.55" fill="#f8cbcb"/><circle cx="863.0999999999999" cy="616.5" r="20.55" fill="#f7c8c8"/><circle cx="945.3" cy="616.5" r="20.55" fill="#f3acac"/><circle cx="1027.5" cy="616.5" r="20.55" fill="#ee8383"/><circle cx="1109.7" cy="616.5" r="20.55" fill="#fbe0e0"/><circle cx="1191.8999999999999" cy="616.5" r="20.55" fill="#fef7f7"/><circle cx="1274.1" cy="616.5" r="20.55" fill="#f8cbcb"/><circle cx="41.1" cy="698.6999999999999" r="20.55" fill="#f7c7c7"/><circle cx="123.3" cy="698.6999999999999" r="20.55" fill="#f8cccc"/><circle cx="205.5" cy="698.6999999999999" r="20.55" fill="#fefbfb"/><circle cx="287.7" cy="698.6999999999999" r="20.55" fill="#fef8f8"/><circle cx="369.90000000000003" cy="698.6999999999999" r="20.55" fill="#fce8e8"/><circle cx="452.1" cy="698.6999999999999" r="20.55" fill="#f5b8b8"/><circle cx="534.3" cy="698.6999999999999" r="20.55" fill="#fadbdb"/><circle cx="616.5" cy="698.6999999999999" r="20.55" fill="#f7c4c4"/><circle cx="698.6999999999999" cy="698.6999999999999" r="20.55" fill="#f9d1d1"/><circle cx="780.9" cy="698.6999999999999" r="20.55" fill="#f3adad"/><circle cx="863.0999999999999" cy="698.6999999999999" r="20.55" fill="#f5b9b9"/><circle cx="945.3" cy="698.6999999999999" r="20.55" fill="#fdeeee"/><circle cx="1027.5" cy="698.6999999999999" r="20.55" fill="#ee8686"/><circle cx="1109.7" cy="698.6999999999999" r="20.55" fill="#f8cccc"/><circle cx="1191.8999999999999" cy="698.6999999999999" r="20.55" fill="#f6bfbf"/><circle cx="1274.1" cy="698.6999999999999" r="20.55" fill="#ed8080"/><circle cx="41.1" cy="780.9" r="20.55" fill="#fadede"/><circle cx="123.3" cy="780.9" r="20.55" fill="#ee8282"/><circle cx="205.5" cy="780.9" r="20.55" fill="#f9d7d7"/><circle cx="287.7" cy="780.9" r="20.55" fill="#f19999"/><circle cx="369.90000000000003" cy="780.9" r="20.55" fill="#f19e9e"/><circle cx="452.1" cy="780.9" r="20.55" fill="#f6bebe"/><circle cx="534.3" cy="780.9" r="20.55" fill="#fef5f5"/><circle cx="616.5" cy="780.9" r="20.55" fill="#f9d1d1"/><circle cx="698.6999999999999" cy="780.9" r="20.55" fill="#f2a5a5"/><circle cx="780.9" cy="780.9" r="20.55" fill="#fdeeee"/><circle cx="863.0999999999999" cy="780.9" r="20.55" fill="#f6c0c0"/><circle cx="945.3" cy="780.9" r="20.55" fill="#f4b2b2"/><circle cx="1027.5" cy="780.9" r="20.55" fill="#f19898"/><circle cx="1109.7" cy="780.9" r="20.55" fill="#f4afaf"/><circle cx="1191.8999999999999" cy="780.9" r="20.55" fill="#f5b9b9"/><circle cx="1274.1" cy="780.9" r="20.55" fill="#fad9d9"/></g></svg>